{
  "title": "Beyond The Lights 2014 720p HDCAM FIRST ENG x264 Pimp4003",
  "uid": 11511994,
  "size": 2077387060,
  "categoryP": "video",
  "categoryS": "movies",
  "magnet": "?xt=urn:btih:a3a3fa4cb1c43e66ae29b6ee253863234ebffe48&amp;dn=Beyond+The+Lights+2014+720p+HDCAM+FIRST+ENG+x264+Pimp4003&amp;tr=udp%3A%2F%2Ftracker.openbittorrent.com%3A80&amp;tr=udp%3A%2F%2Fopen.demonii.com%3A1337&amp;tr=udp%3A%2F%2Ftracker.coppersurfer.tk%3A6969&amp;tr=udp%3A%2F%2Fexodus.desync.com%3A6969",
  "seeders": 68,
  "leechers": 0,
  "uploader": "shawnmurthy",
  "files": -1,
  "time": 1416409380,
  "description": "[size=200][color=red][b]FOR SCREENSHOTS AND FASTER DOWNLOAD SPEEDS PLEASESOURCE IS PIMP4003....THE SOURCE IS PIMP4003.....PRETTY GOOD CAM...VIDEO IS PRETTY GOOD NOT BAD FOR A CAM....DID SOME ADJUSTMENTS HERE AND THERE...AUDIO NOT BAD...DID A BIT OF WORK....ENJOY........ENJOY[/b][/color][/size]\n\n[u][b][color=green][size=200]PIMP THE ONE AND ONLY PIMPSTER.....PRESENTS[/size][/color][/b][/u]\n\n[IMG]http://i.imgur.com/3bYy5t8.jpg[/IMG]\n\n\n\n[IMG]http://i.imgur.com/tOq3liE.jpg[/IMG]\n\nBeyond The Lights 2014 720p HDCAM FIRST ENG x264 Pimp4003\n\nThe pressures of fame have superstar singer Noni on the edge, until she meets Kaz, a young cop who works to help her find the courage to develop her own voice and break free to become the artist she was meant to be.\n\nDirector: Gina Prince-Bythewood\nWriter: Gina Prince-Bythewood\nStars: Gugu Mbatha-Raw, Nate Parker, Minnie Driver | See full cast and crew Â»\n\nENJOY\n\nPIMP4003\n\nVideo\nID                                       : 1\nFormat                                   : MPEG-4 Visual\nFormat profile                           : Simple@L3\nFormat settings, BVOP                    : No\nFormat settings, QPel                    : No\nFormat settings, GMC                     : No warppoints\nFormat settings, Matrix                  : Default (H.263)\nCodec ID                                 : 20\nDuration                                 : 1h 49mn\nBit rate                                 : 2 395 Kbps\nWidth                                    : 1 280 pixels\nHeight                                   : 536 pixels\nDisplay aspect ratio                     : 2.40:1\nFrame rate mode                          : Variable\nFrame rate                               : 59.940 fps\nMinimum frame rate                       : 59.916 fps\nMaximum frame rate                       : 60.157 fps\nColor space                              : YUV\nChroma subsampling                       : 4:2:0\nBit depth                                : 8 bits\nScan type                                : Progressive\nCompression mode                         : Lossy\nBits/(Pixel*Frame)                       : 0.058\nStream size                              : 1.83 GiB (95%)\nWriting library                          : ZJMedia MPEG Encoder\n\nAudio\nID                                       : 2\nFormat                                   : AAC\nFormat/Info                              : Advanced Audio Codec\nFormat profile                           : LC\nCodec ID                                 : 40\nDuration                                 : 1h 49mn\nBit rate mode                            : Variable\nBit rate                                 : 128 Kbps\nChannel(s)                               : 2 channels\nChannel positions                        : Front: L R\nSampling rate                            : 48.0 KHz\nCompression mode                         : Lossy\nStream size                              : 100 MiB (5%)",
  "parsed": {
    "xt": "urn:btih:a3a3fa4cb1c43e66ae29b6ee253863234ebffe48",
    "dn": "Beyond The Lights 2014 720p HDCAM FIRST ENG x264 Pimp4003",
    "tr": [
      "udp://exodus.desync.com:6969",
      "udp://open.demonii.com:1337",
      "udp://tracker.coppersurfer.tk:6969",
      "udp://tracker.openbittorrent.com:80"
    ],
    "infoHash": "a3a3fa4cb1c43e66ae29b6ee253863234ebffe48",
    "infoHashBuffer": {
      "type": "Buffer",
      "data": [
        163,
        163,
        250,
        76,
        177,
        196,
        62,
        102,
        174,
        41,
        182,
        238,
        37,
        56,
        99,
        35,
        78,
        191,
        254,
        72
      ]
    },
    "name": "Beyond The Lights 2014 720p HDCAM FIRST ENG x264 Pimp4003",
    "announce": [
      "udp://exodus.desync.com:6969",
      "udp://open.demonii.com:1337",
      "udp://tracker.coppersurfer.tk:6969",
      "udp://tracker.openbittorrent.com:80"
    ],
    "urlList": []
  },
  "previous": 68,
  "peers": 1,
  "last_updated": "2016-12-25T09:53:00.920Z"
}